<svg width="1142" height="606" viewBox="0 0 1142 606" fill="none" xmlns="http://www.w3.org/2000/svg">
<path d="M772 302L785.3 268.65H788.9L802.15 302H798.3L786.75 272L787.5 271.9L775.9 302H772ZM777.85 291.6L779.4 288.15H795.75L796 291.6H777.85ZM816.929 302.7C816.196 302.7 815.362 302.6 814.429 302.4C813.529 302.2 812.646 301.95 811.779 301.65C810.912 301.35 810.146 301.033 809.479 300.7L810.729 299.45V312.85H807.129V281.55C807.129 280.517 807.446 279.683 808.079 279.05C808.746 278.417 809.596 277.933 810.629 277.6C811.662 277.233 812.762 276.983 813.929 276.85C815.096 276.683 816.196 276.6 817.229 276.6C819.229 276.6 821.112 277.017 822.879 277.85C824.646 278.683 826.079 280.1 827.179 282.1C828.279 284.067 828.829 286.75 828.829 290.15C828.829 292.717 828.362 294.95 827.429 296.85C826.529 298.717 825.196 300.167 823.429 301.2C821.662 302.2 819.496 302.7 816.929 302.7ZM816.929 299.4C818.762 299.4 820.262 299.017 821.429 298.25C822.629 297.45 823.529 296.35 824.129 294.95C824.729 293.55 825.029 291.95 825.029 290.15C825.029 288.35 824.829 286.667 824.429 285.1C824.029 283.533 823.262 282.283 822.129 281.35C820.996 280.383 819.346 279.9 817.179 279.9C815.446 279.9 813.929 280.1 812.629 280.5C811.362 280.9 810.729 281.467 810.729 282.2V297.65C811.762 298.25 812.796 298.7 813.829 299C814.862 299.267 815.896 299.4 816.929 299.4ZM845.396 302.7C844.662 302.7 843.829 302.6 842.896 302.4C841.996 302.2 841.112 301.95 840.246 301.65C839.379 301.35 838.612 301.033 837.946 300.7L839.196 299.45V312.85H835.596V281.55C835.596 280.517 835.912 279.683 836.546 279.05C837.212 278.417 838.062 277.933 839.096 277.6C840.129 277.233 841.229 276.983 842.396 276.85C843.562 276.683 844.662 276.6 845.696 276.6C847.696 276.6 849.579 277.017 851.346 277.85C853.112 278.683 854.546 280.1 855.646 282.1C856.746 284.067 857.296 286.75 857.296 290.15C857.296 292.717 856.829 294.95 855.896 296.85C854.996 298.717 853.662 300.167 851.896 301.2C850.129 302.2 847.962 302.7 845.396 302.7ZM845.396 299.4C847.229 299.4 848.729 299.017 849.896 298.25C851.096 297.45 851.996 296.35 852.596 294.95C853.196 293.55 853.496 291.95 853.496 290.15C853.496 288.35 853.296 286.667 852.896 285.1C852.496 283.533 851.729 282.283 850.596 281.35C849.462 280.383 847.812 279.9 845.646 279.9C843.912 279.9 842.396 280.1 841.096 280.5C839.829 280.9 839.196 281.467 839.196 282.2V297.65C840.229 298.25 841.262 298.7 842.296 299C843.329 299.267 844.362 299.4 845.396 299.4ZM867.663 302H864.063V267.55H867.663V302ZM875.884 302V277.05H879.484V302H875.884ZM875.684 272.6V268.65H879.684V272.6H875.684ZM897.995 302.75C895.629 302.75 893.579 302.267 891.845 301.3C890.112 300.3 888.779 298.817 887.845 296.85C886.912 294.883 886.445 292.433 886.445 289.5C886.445 285.2 887.412 281.983 889.345 279.85C891.312 277.683 893.995 276.6 897.395 276.6C900.062 276.6 902.195 277.2 903.795 278.4C905.429 279.6 906.595 281.217 907.295 283.25C907.995 285.283 908.329 287.583 908.295 290.15H888.245L888.495 286.85H905.945L904.545 287.35C904.445 284.85 903.812 282.983 902.645 281.75C901.512 280.517 899.762 279.9 897.395 279.9C895.762 279.9 894.395 280.2 893.295 280.8C892.229 281.4 891.429 282.45 890.895 283.95C890.362 285.417 890.095 287.483 890.095 290.15C890.095 293.183 890.795 295.5 892.195 297.1C893.629 298.667 895.629 299.45 898.195 299.45C899.429 299.45 900.562 299.367 901.595 299.2C902.629 299 903.579 298.733 904.445 298.4C905.312 298.067 906.079 297.7 906.745 297.3V301C905.545 301.567 904.212 302 902.745 302.3C901.312 302.6 899.729 302.75 897.995 302.75ZM925.389 302.75C924.189 302.75 922.922 302.567 921.589 302.2C920.256 301.867 918.989 301.233 917.789 300.3C916.622 299.333 915.656 297.967 914.889 296.2C914.156 294.4 913.789 292.067 913.789 289.2C913.789 285.333 914.722 282.283 916.589 280.05C918.489 277.783 921.356 276.65 925.189 276.65C925.922 276.65 926.789 276.75 927.789 276.95C928.789 277.15 929.772 277.4 930.739 277.7C931.706 278 932.506 278.317 933.139 278.65L931.889 279.9V266.5H935.489V297.7C935.489 298.633 935.156 299.433 934.489 300.1C933.856 300.733 933.022 301.25 931.989 301.65C930.956 302.017 929.856 302.283 928.689 302.45C927.522 302.65 926.422 302.75 925.389 302.75ZM925.439 299.45C927.172 299.45 928.672 299.25 929.939 298.85C931.239 298.45 931.889 297.95 931.889 297.35V281.7C930.856 281.1 929.739 280.667 928.539 280.4C927.372 280.1 926.256 279.95 925.189 279.95C923.389 279.95 921.922 280.35 920.789 281.15C919.689 281.917 918.872 283 918.339 284.4C917.839 285.767 917.589 287.367 917.589 289.2C917.589 291 917.789 292.683 918.189 294.25C918.589 295.783 919.356 297.033 920.489 298C921.622 298.967 923.272 299.45 925.439 299.45ZM789.2 361.4C784.067 361.4 780.2 359.967 777.6 357.1C775.033 354.233 773.75 349.967 773.75 344.3C773.75 338.633 775.033 334.367 777.6 331.5C780.2 328.633 784.067 327.2 789.2 327.2C790.967 327.2 792.7 327.417 794.4 327.85C796.1 328.283 797.75 328.883 799.35 329.65V333.1C797.817 332.267 796.233 331.65 794.6 331.25C792.967 330.817 791.3 330.6 789.6 330.6C786.8 330.6 784.5 331.083 782.7 332.05C780.933 333.017 779.617 334.517 778.75 336.55C777.917 338.55 777.5 341.133 777.5 344.3C777.5 347.467 777.917 350.067 778.75 352.1C779.617 354.1 780.933 355.583 782.7 356.55C784.5 357.517 786.8 358 789.6 358C791.3 358 792.967 357.8 794.6 357.4C796.233 357 797.817 356.383 799.35 355.55V359C798.283 359.5 797.183 359.933 796.05 360.3C794.95 360.667 793.817 360.933 792.65 361.1C791.517 361.3 790.367 361.4 789.2 361.4ZM816.354 361.75C812.454 361.75 809.554 360.6 807.654 358.3C805.787 355.967 804.854 352.733 804.854 348.6C804.854 344.267 805.837 341.017 807.804 338.85C809.804 336.683 812.62 335.6 816.254 335.6C818.954 335.6 821.154 336.15 822.854 337.25C824.554 338.317 825.804 339.833 826.604 341.8C827.404 343.733 827.804 346 827.804 348.6C827.804 352.7 826.804 355.917 824.804 358.25C822.837 360.583 820.02 361.75 816.354 361.75ZM816.304 358.45C818.337 358.45 819.92 358.017 821.054 357.15C822.187 356.25 822.987 355.067 823.454 353.6C823.954 352.1 824.204 350.433 824.204 348.6C824.204 346.633 823.954 344.933 823.454 343.5C822.954 342.033 822.12 340.9 820.954 340.1C819.82 339.3 818.27 338.9 816.304 338.9C814.304 338.9 812.737 339.333 811.604 340.2C810.47 341.067 809.654 342.233 809.154 343.7C808.687 345.133 808.454 346.767 808.454 348.6C808.454 351.533 809.037 353.917 810.204 355.75C811.37 357.55 813.404 358.45 816.304 358.45ZM855.02 344.75V361H851.42V344.75C851.42 344.15 851.337 343.517 851.17 342.85C851.037 342.183 850.754 341.55 850.32 340.95C849.887 340.317 849.22 339.817 848.32 339.45C847.42 339.05 846.22 338.85 844.72 338.85C843.687 338.85 842.62 338.933 841.52 339.1C840.42 339.267 839.304 339.517 838.17 339.85V361H834.57V338.05C835.37 337.65 836.187 337.3 837.02 337C837.887 336.667 838.754 336.4 839.62 336.2C840.52 336 841.42 335.85 842.32 335.75C843.254 335.65 844.187 335.6 845.12 335.6C847.554 335.6 849.487 335.967 850.92 336.7C852.354 337.4 853.387 338.433 854.02 339.8C854.687 341.167 855.02 342.817 855.02 344.75ZM850.27 339.05C851.37 338.217 852.487 337.55 853.62 337.05C854.754 336.55 855.92 336.183 857.12 335.95C858.354 335.717 859.587 335.6 860.82 335.6C863.254 335.6 865.187 335.967 866.62 336.7C868.054 337.4 869.087 338.433 869.72 339.8C870.387 341.167 870.72 342.817 870.72 344.75V361H867.12V344.75C867.12 344.15 867.037 343.517 866.87 342.85C866.737 342.183 866.454 341.55 866.02 340.95C865.587 340.317 864.92 339.817 864.02 339.45C863.12 339.05 861.92 338.85 860.42 338.85C859.387 338.85 858.32 339 857.22 339.3C856.12 339.6 855.004 340.117 853.87 340.85L850.27 339.05ZM888.511 361.7C887.778 361.7 886.944 361.6 886.011 361.4C885.111 361.2 884.228 360.95 883.361 360.65C882.494 360.35 881.728 360.033 881.061 359.7L882.311 358.45V371.85H878.711V340.55C878.711 339.517 879.028 338.683 879.661 338.05C880.328 337.417 881.178 336.933 882.211 336.6C883.244 336.233 884.344 335.983 885.511 335.85C886.678 335.683 887.778 335.6 888.811 335.6C890.811 335.6 892.694 336.017 894.461 336.85C896.228 337.683 897.661 339.1 898.761 341.1C899.861 343.067 900.411 345.75 900.411 349.15C900.411 351.717 899.944 353.95 899.011 355.85C898.111 357.717 896.778 359.167 895.011 360.2C893.244 361.2 891.078 361.7 888.511 361.7ZM888.511 358.4C890.344 358.4 891.844 358.017 893.011 357.25C894.211 356.45 895.111 355.35 895.711 353.95C896.311 352.55 896.611 350.95 896.611 349.15C896.611 347.35 896.411 345.667 896.011 344.1C895.611 342.533 894.844 341.283 893.711 340.35C892.578 339.383 890.928 338.9 888.761 338.9C887.028 338.9 885.511 339.1 884.211 339.5C882.944 339.9 882.311 340.467 882.311 341.2V356.65C883.344 357.25 884.378 357.7 885.411 358C886.444 358.267 887.478 358.4 888.511 358.4ZM917.628 361.75C915.428 361.75 913.544 361.367 911.978 360.6C910.411 359.833 909.211 358.717 908.378 357.25C907.578 355.783 907.178 353.983 907.178 351.85V336.05H910.778V351.05C910.778 353.583 911.328 355.45 912.428 356.65C913.561 357.817 915.294 358.4 917.628 358.4C919.961 358.4 921.678 357.817 922.778 356.65C923.911 355.45 924.478 353.583 924.478 351.05V336.05H928.078V351.85C928.078 355.017 927.161 357.467 925.328 359.2C923.528 360.9 920.961 361.75 917.628 361.75ZM943.934 361.4C942.167 361.4 940.684 360.867 939.484 359.8C938.284 358.7 937.684 357.083 937.684 354.95V339.35H933.334V336.05H937.684V329H941.284V336.05H947.734V339.35H941.284V353.8C941.284 355.2 941.501 356.25 941.934 356.95C942.367 357.65 943.251 358 944.584 358C945.184 358 945.767 357.95 946.334 357.85C946.901 357.717 947.367 357.567 947.734 357.4V360.8C947.267 360.967 946.667 361.1 945.934 361.2C945.234 361.333 944.567 361.4 943.934 361.4ZM962.848 361.75C961.748 361.75 960.631 361.633 959.498 361.4C958.398 361.167 957.365 360.767 956.398 360.2C955.465 359.633 954.698 358.867 954.098 357.9C953.531 356.9 953.248 355.65 953.248 354.15C953.248 352.083 953.631 350.433 954.398 349.2C955.198 347.933 956.281 347.033 957.648 346.5C959.048 345.933 960.648 345.65 962.448 345.65C963.815 345.65 964.998 345.733 965.998 345.9C966.998 346.067 967.881 346.317 968.648 346.65C969.448 346.95 970.165 347.3 970.798 347.7L971.498 351C970.731 350.433 969.615 349.95 968.148 349.55C966.715 349.117 965.131 348.9 963.398 348.9C961.298 348.9 959.681 349.3 958.548 350.1C957.415 350.9 956.848 352.067 956.848 353.6C956.848 354.833 957.181 355.817 957.848 356.55C958.548 357.283 959.415 357.8 960.448 358.1C961.515 358.4 962.598 358.55 963.698 358.55C965.865 358.55 967.498 358.4 968.598 358.1C969.731 357.767 970.298 357.033 970.298 355.9V344.45C970.298 342.517 969.731 341.1 968.598 340.2C967.465 339.3 965.848 338.85 963.748 338.85C962.415 338.85 960.998 339.05 959.498 339.45C958.031 339.817 956.765 340.417 955.698 341.25V337.65C956.731 336.983 958.115 336.483 959.848 336.15C961.581 335.783 963.265 335.6 964.898 335.6C965.998 335.6 967.015 335.717 967.948 335.95C968.881 336.15 969.715 336.467 970.448 336.9C971.181 337.3 971.798 337.833 972.298 338.5C972.831 339.133 973.231 339.883 973.498 340.75C973.798 341.583 973.948 342.533 973.948 343.6V355.7C973.948 357.467 973.415 358.783 972.348 359.65C971.315 360.517 969.948 361.083 968.248 361.35C966.581 361.617 964.781 361.75 962.848 361.75ZM989.784 361.4C988.017 361.4 986.534 360.867 985.334 359.8C984.134 358.7 983.534 357.083 983.534 354.95V339.35H979.184V336.05H983.534V329H987.134V336.05H993.584V339.35H987.134V353.8C987.134 355.2 987.35 356.25 987.784 356.95C988.217 357.65 989.1 358 990.434 358C991.034 358 991.617 357.95 992.184 357.85C992.75 357.717 993.217 357.567 993.584 357.4V360.8C993.117 360.967 992.517 361.1 991.784 361.2C991.084 361.333 990.417 361.4 989.784 361.4ZM1000.3 361V336.05H1003.9V361H1000.3ZM1000.1 331.6V327.65H1004.1V331.6H1000.1ZM1022.36 361.75C1018.46 361.75 1015.56 360.6 1013.66 358.3C1011.79 355.967 1010.86 352.733 1010.86 348.6C1010.86 344.267 1011.84 341.017 1013.81 338.85C1015.81 336.683 1018.63 335.6 1022.26 335.6C1024.96 335.6 1027.16 336.15 1028.86 337.25C1030.56 338.317 1031.81 339.833 1032.61 341.8C1033.41 343.733 1033.81 346 1033.81 348.6C1033.81 352.7 1032.81 355.917 1030.81 358.25C1028.84 360.583 1026.03 361.75 1022.36 361.75ZM1022.31 358.45C1024.34 358.45 1025.93 358.017 1027.06 357.15C1028.19 356.25 1028.99 355.067 1029.46 353.6C1029.96 352.1 1030.21 350.433 1030.21 348.6C1030.21 346.633 1029.96 344.933 1029.46 343.5C1028.96 342.033 1028.13 340.9 1026.96 340.1C1025.83 339.3 1024.28 338.9 1022.31 338.9C1020.31 338.9 1018.74 339.333 1017.61 340.2C1016.48 341.067 1015.66 342.233 1015.16 343.7C1014.69 345.133 1014.46 346.767 1014.46 348.6C1014.46 351.533 1015.04 353.917 1016.21 355.75C1017.38 357.55 1019.41 358.45 1022.31 358.45ZM1040.58 338.05C1041.38 337.65 1042.19 337.3 1043.03 337C1043.89 336.667 1044.76 336.4 1045.63 336.2C1046.53 336 1047.43 335.85 1048.33 335.75C1049.26 335.65 1050.19 335.6 1051.13 335.6C1053.56 335.6 1055.49 335.967 1056.93 336.7C1058.36 337.4 1059.39 338.433 1060.03 339.8C1060.69 341.167 1061.03 342.817 1061.03 344.75V361H1057.43V344.75C1057.43 344.15 1057.34 343.517 1057.18 342.85C1057.04 342.183 1056.76 341.55 1056.33 340.95C1055.89 340.317 1055.23 339.817 1054.33 339.45C1053.43 339.05 1052.23 338.85 1050.73 338.85C1049.69 338.85 1048.63 338.933 1047.53 339.1C1046.43 339.267 1045.31 339.517 1044.18 339.85V361H1040.58V338.05ZM1077.64 361.75C1076.54 361.75 1075.43 361.633 1074.29 361.4C1073.19 361.167 1072.16 360.767 1071.19 360.2C1070.26 359.633 1069.49 358.867 1068.89 357.9C1068.33 356.9 1068.04 355.65 1068.04 354.15C1068.04 352.083 1068.43 350.433 1069.19 349.2C1069.99 347.933 1071.08 347.033 1072.44 346.5C1073.84 345.933 1075.44 345.65 1077.24 345.65C1078.61 345.65 1079.79 345.733 1080.79 345.9C1081.79 346.067 1082.68 346.317 1083.44 346.65C1084.24 346.95 1084.96 347.3 1085.59 347.7L1086.29 351C1085.53 350.433 1084.41 349.95 1082.94 349.55C1081.51 349.117 1079.93 348.9 1078.19 348.9C1076.09 348.9 1074.48 349.3 1073.34 350.1C1072.21 350.9 1071.64 352.067 1071.64 353.6C1071.64 354.833 1071.98 355.817 1072.64 356.55C1073.34 357.283 1074.21 357.8 1075.24 358.1C1076.31 358.4 1077.39 358.55 1078.49 358.55C1080.66 358.55 1082.29 358.4 1083.39 358.1C1084.53 357.767 1085.09 357.033 1085.09 355.9V344.45C1085.09 342.517 1084.53 341.1 1083.39 340.2C1082.26 339.3 1080.64 338.85 1078.54 338.85C1077.21 338.85 1075.79 339.05 1074.29 339.45C1072.83 339.817 1071.56 340.417 1070.49 341.25V337.65C1071.53 336.983 1072.91 336.483 1074.64 336.15C1076.38 335.783 1078.06 335.6 1079.69 335.6C1080.79 335.6 1081.81 335.717 1082.74 335.95C1083.68 336.15 1084.51 336.467 1085.24 336.9C1085.98 337.3 1086.59 337.833 1087.09 338.5C1087.63 339.133 1088.03 339.883 1088.29 340.75C1088.59 341.583 1088.74 342.533 1088.74 343.6V355.7C1088.74 357.467 1088.21 358.783 1087.14 359.65C1086.11 360.517 1084.74 361.083 1083.04 361.35C1081.38 361.617 1079.58 361.75 1077.64 361.75ZM1100.33 361H1096.73V326.55H1100.33V361ZM775.25 420V386.65H779.15L791.5 405.6L789.05 406.15L802.1 386.65H806V420H802.4V390.25H804L790.25 409.55L777.55 390.65L778.85 388.8V420H775.25ZM822.858 420.75C821.758 420.75 820.641 420.633 819.508 420.4C818.408 420.167 817.374 419.767 816.408 419.2C815.474 418.633 814.708 417.867 814.108 416.9C813.541 415.9 813.258 414.65 813.258 413.15C813.258 411.083 813.641 409.433 814.408 408.2C815.208 406.933 816.291 406.033 817.658 405.5C819.058 404.933 820.658 404.65 822.458 404.65C823.824 404.65 825.008 404.733 826.008 404.9C827.008 405.067 827.891 405.317 828.658 405.65C829.458 405.95 830.174 406.3 830.808 406.7L831.508 410C830.741 409.433 829.624 408.95 828.158 408.55C826.724 408.117 825.141 407.9 823.408 407.9C821.308 407.9 819.691 408.3 818.558 409.1C817.424 409.9 816.858 411.067 816.858 412.6C816.858 413.833 817.191 414.817 817.858 415.55C818.558 416.283 819.424 416.8 820.458 417.1C821.524 417.4 822.608 417.55 823.708 417.55C825.874 417.55 827.508 417.4 828.608 417.1C829.741 416.767 830.308 416.033 830.308 414.9V403.45C830.308 401.517 829.741 400.1 828.608 399.2C827.474 398.3 825.858 397.85 823.758 397.85C822.424 397.85 821.008 398.05 819.508 398.45C818.041 398.817 816.774 399.417 815.708 400.25V396.65C816.741 395.983 818.124 395.483 819.858 395.15C821.591 394.783 823.274 394.6 824.908 394.6C826.008 394.6 827.024 394.717 827.958 394.95C828.891 395.15 829.724 395.467 830.458 395.9C831.191 396.3 831.808 396.833 832.308 397.5C832.841 398.133 833.241 398.883 833.508 399.75C833.808 400.583 833.958 401.533 833.958 402.6V414.7C833.958 416.467 833.424 417.783 832.358 418.65C831.324 419.517 829.958 420.083 828.258 420.35C826.591 420.617 824.791 420.75 822.858 420.75ZM849.793 420.4C848.027 420.4 846.543 419.867 845.343 418.8C844.143 417.7 843.543 416.083 843.543 413.95V398.35H839.193V395.05H843.543V388H847.143V395.05H853.593V398.35H847.143V412.8C847.143 414.2 847.36 415.25 847.793 415.95C848.227 416.65 849.11 417 850.443 417C851.043 417 851.627 416.95 852.193 416.85C852.76 416.717 853.227 416.567 853.593 416.4V419.8C853.127 419.967 852.527 420.1 851.793 420.2C851.093 420.333 850.427 420.4 849.793 420.4ZM860.107 420V384H863.707V397.85L863.307 396.9C864.574 396.2 865.907 395.65 867.307 395.25C868.707 394.817 870.024 394.6 871.257 394.6C873.324 394.6 875.057 394.983 876.457 395.75C877.891 396.517 878.974 397.683 879.707 399.25C880.474 400.783 880.857 402.767 880.857 405.2V420H877.257V405.2C877.257 402.867 876.724 401.067 875.657 399.8C874.591 398.533 872.991 397.9 870.857 397.9C869.691 397.9 868.507 398.067 867.307 398.4C866.141 398.733 864.941 399.233 863.707 399.9V420H860.107ZM899.167 420.75C896.801 420.75 894.751 420.267 893.017 419.3C891.284 418.3 889.951 416.817 889.017 414.85C888.084 412.883 887.617 410.433 887.617 407.5C887.617 403.2 888.584 399.983 890.517 397.85C892.484 395.683 895.167 394.6 898.567 394.6C901.234 394.6 903.367 395.2 904.967 396.4C906.601 397.6 907.767 399.217 908.467 401.25C909.167 403.283 909.501 405.583 909.467 408.15H889.417L889.667 404.85H907.117L905.717 405.35C905.617 402.85 904.984 400.983 903.817 399.75C902.684 398.517 900.934 397.9 898.567 397.9C896.934 397.9 895.567 398.2 894.467 398.8C893.401 399.4 892.601 400.45 892.067 401.95C891.534 403.417 891.267 405.483 891.267 408.15C891.267 411.183 891.967 413.5 893.367 415.1C894.801 416.667 896.801 417.45 899.367 417.45C900.601 417.45 901.734 417.367 902.767 417.2C903.801 417 904.751 416.733 905.617 416.4C906.484 416.067 907.251 415.7 907.917 415.3V419C906.717 419.567 905.384 420 903.917 420.3C902.484 420.6 900.901 420.75 899.167 420.75ZM936.661 403.75V420H933.061V403.75C933.061 403.15 932.978 402.517 932.811 401.85C932.678 401.183 932.394 400.55 931.961 399.95C931.528 399.317 930.861 398.817 929.961 398.45C929.061 398.05 927.861 397.85 926.361 397.85C925.328 397.85 924.261 397.933 923.161 398.1C922.061 398.267 920.944 398.517 919.811 398.85V420H916.211V397.05C917.011 396.65 917.828 396.3 918.661 396C919.528 395.667 920.394 395.4 921.261 395.2C922.161 395 923.061 394.85 923.961 394.75C924.894 394.65 925.828 394.6 926.761 394.6C929.194 394.6 931.128 394.967 932.561 395.7C933.994 396.4 935.028 397.433 935.661 398.8C936.328 400.167 936.661 401.817 936.661 403.75ZM931.911 398.05C933.011 397.217 934.128 396.55 935.261 396.05C936.394 395.55 937.561 395.183 938.761 394.95C939.994 394.717 941.228 394.6 942.461 394.6C944.894 394.6 946.828 394.967 948.261 395.7C949.694 396.4 950.728 397.433 951.361 398.8C952.028 400.167 952.361 401.817 952.361 403.75V420H948.761V403.75C948.761 403.15 948.678 402.517 948.511 401.85C948.378 401.183 948.094 400.55 947.661 399.95C947.228 399.317 946.561 398.817 945.661 398.45C944.761 398.05 943.561 397.85 942.061 397.85C941.028 397.85 939.961 398 938.861 398.3C937.761 398.6 936.644 399.117 935.511 399.85L931.911 398.05ZM968.952 420.75C967.852 420.75 966.735 420.633 965.602 420.4C964.502 420.167 963.468 419.767 962.502 419.2C961.568 418.633 960.802 417.867 960.202 416.9C959.635 415.9 959.352 414.65 959.352 413.15C959.352 411.083 959.735 409.433 960.502 408.2C961.302 406.933 962.385 406.033 963.752 405.5C965.152 404.933 966.752 404.65 968.552 404.65C969.918 404.65 971.102 404.733 972.102 404.9C973.102 405.067 973.985 405.317 974.752 405.65C975.552 405.95 976.268 406.3 976.902 406.7L977.602 410C976.835 409.433 975.718 408.95 974.252 408.55C972.818 408.117 971.235 407.9 969.502 407.9C967.402 407.9 965.785 408.3 964.652 409.1C963.518 409.9 962.952 411.067 962.952 412.6C962.952 413.833 963.285 414.817 963.952 415.55C964.652 416.283 965.518 416.8 966.552 417.1C967.618 417.4 968.702 417.55 969.802 417.55C971.968 417.55 973.602 417.4 974.702 417.1C975.835 416.767 976.402 416.033 976.402 414.9V403.45C976.402 401.517 975.835 400.1 974.702 399.2C973.568 398.3 971.952 397.85 969.852 397.85C968.518 397.85 967.102 398.05 965.602 398.45C964.135 398.817 962.868 399.417 961.802 400.25V396.65C962.835 395.983 964.218 395.483 965.952 395.15C967.685 394.783 969.368 394.6 971.002 394.6C972.102 394.6 973.118 394.717 974.052 394.95C974.985 395.15 975.818 395.467 976.552 395.9C977.285 396.3 977.902 396.833 978.402 397.5C978.935 398.133 979.335 398.883 979.602 399.75C979.902 400.583 980.052 401.533 980.052 402.6V414.7C980.052 416.467 979.518 417.783 978.452 418.65C977.418 419.517 976.052 420.083 974.352 420.35C972.685 420.617 970.885 420.75 968.952 420.75ZM995.887 420.4C994.12 420.4 992.637 419.867 991.437 418.8C990.237 417.7 989.637 416.083 989.637 413.95V398.35H985.287V395.05H989.637V388H993.237V395.05H999.687V398.35H993.237V412.8C993.237 414.2 993.454 415.25 993.887 415.95C994.32 416.65 995.204 417 996.537 417C997.137 417 997.72 416.95 998.287 416.85C998.854 416.717 999.32 416.567 999.687 416.4V419.8C999.22 419.967 998.62 420.1 997.887 420.2C997.187 420.333 996.52 420.4 995.887 420.4ZM1006.4 420V395.05H1010V420H1006.4ZM1006.2 390.6V386.65H1010.2V390.6H1006.2ZM1028.66 420.4C1027.33 420.4 1025.96 420.233 1024.56 419.9C1023.2 419.533 1021.93 418.9 1020.76 418C1019.63 417.067 1018.71 415.75 1018.01 414.05C1017.31 412.35 1016.96 410.167 1016.96 407.5C1016.96 404.833 1017.31 402.667 1018.01 401C1018.71 399.3 1019.63 397.983 1020.76 397.05C1021.93 396.117 1023.2 395.483 1024.56 395.15C1025.96 394.783 1027.33 394.6 1028.66 394.6C1029.93 394.6 1031.18 394.717 1032.41 394.95C1033.68 395.183 1034.9 395.533 1036.06 396V399.45C1034.96 398.983 1033.83 398.633 1032.66 398.4C1031.5 398.167 1030.3 398.05 1029.06 398.05C1026.1 398.05 1023.93 398.8 1022.56 400.3C1021.23 401.8 1020.56 404.2 1020.56 407.5C1020.56 410.833 1021.23 413.25 1022.56 414.75C1023.93 416.217 1026.1 416.95 1029.06 416.95C1030.3 416.95 1031.5 416.833 1032.66 416.6C1033.83 416.367 1034.96 416.017 1036.06 415.55V419.05C1034.9 419.483 1033.68 419.817 1032.41 420.05C1031.18 420.283 1029.93 420.4 1028.66 420.4ZM1049.87 420.75C1048.07 420.75 1046.56 420.567 1045.32 420.2C1044.12 419.833 1042.87 419.317 1041.57 418.65V414.85C1042.61 415.417 1043.52 415.9 1044.32 416.3C1045.12 416.7 1045.94 417 1046.77 417.2C1047.61 417.367 1048.56 417.45 1049.62 417.45C1051.29 417.45 1052.64 417.083 1053.67 416.35C1054.74 415.617 1055.27 414.667 1055.27 413.5C1055.27 412.567 1055.01 411.85 1054.47 411.35C1053.97 410.85 1053.32 410.433 1052.52 410.1C1051.72 409.767 1050.89 409.417 1050.02 409.05C1049.06 408.783 1048.07 408.5 1047.07 408.2C1046.11 407.867 1045.21 407.45 1044.37 406.95C1043.57 406.417 1042.92 405.75 1042.42 404.95C1041.92 404.117 1041.67 403.05 1041.67 401.75C1041.67 400.483 1041.92 399.4 1042.42 398.5C1042.96 397.6 1043.64 396.867 1044.47 396.3C1045.31 395.7 1046.24 395.267 1047.27 395C1048.31 394.733 1049.34 394.6 1050.37 394.6C1051.87 394.6 1053.16 394.8 1054.22 395.2C1055.29 395.6 1056.39 396.05 1057.52 396.55V400.15C1056.26 399.483 1055.12 398.95 1054.12 398.55C1053.12 398.117 1051.94 397.9 1050.57 397.9C1049.21 397.9 1047.97 398.183 1046.87 398.75C1045.81 399.283 1045.27 400.117 1045.27 401.25C1045.27 402.183 1045.54 402.933 1046.07 403.5C1046.64 404.033 1047.37 404.467 1048.27 404.8C1049.17 405.1 1050.14 405.4 1051.17 405.7C1052.01 405.967 1052.87 406.267 1053.77 406.6C1054.67 406.9 1055.51 407.317 1056.27 407.85C1057.04 408.35 1057.66 409.017 1058.12 409.85C1058.62 410.683 1058.87 411.75 1058.87 413.05C1058.87 414.817 1058.42 416.283 1057.52 417.45C1056.62 418.583 1055.47 419.417 1054.07 419.95C1052.71 420.483 1051.31 420.75 1049.87 420.75ZM775.25 479V445.65H778.85V475.5H795.9V479H775.25ZM809.772 479.75C808.672 479.75 807.555 479.633 806.422 479.4C805.322 479.167 804.289 478.767 803.322 478.2C802.389 477.633 801.622 476.867 801.022 475.9C800.455 474.9 800.172 473.65 800.172 472.15C800.172 470.083 800.555 468.433 801.322 467.2C802.122 465.933 803.205 465.033 804.572 464.5C805.972 463.933 807.572 463.65 809.372 463.65C810.739 463.65 811.922 463.733 812.922 463.9C813.922 464.067 814.805 464.317 815.572 464.65C816.372 464.95 817.089 465.3 817.722 465.7L818.422 469C817.655 468.433 816.539 467.95 815.072 467.55C813.639 467.117 812.055 466.9 810.322 466.9C808.222 466.9 806.605 467.3 805.472 468.1C804.339 468.9 803.772 470.067 803.772 471.6C803.772 472.833 804.105 473.817 804.772 474.55C805.472 475.283 806.339 475.8 807.372 476.1C808.439 476.4 809.522 476.55 810.622 476.55C812.789 476.55 814.422 476.4 815.522 476.1C816.655 475.767 817.222 475.033 817.222 473.9V462.45C817.222 460.517 816.655 459.1 815.522 458.2C814.389 457.3 812.772 456.85 810.672 456.85C809.339 456.85 807.922 457.05 806.422 457.45C804.955 457.817 803.689 458.417 802.622 459.25V455.65C803.655 454.983 805.039 454.483 806.772 454.15C808.505 453.783 810.189 453.6 811.822 453.6C812.922 453.6 813.939 453.717 814.872 453.95C815.805 454.15 816.639 454.467 817.372 454.9C818.105 455.3 818.722 455.833 819.222 456.5C819.755 457.133 820.155 457.883 820.422 458.75C820.722 459.583 820.872 460.533 820.872 461.6V473.7C820.872 475.467 820.339 476.783 819.272 477.65C818.239 478.517 816.872 479.083 815.172 479.35C813.505 479.617 811.705 479.75 809.772 479.75ZM838.707 479.75C837.407 479.75 836.157 479.667 834.957 479.5C833.791 479.367 832.741 479.117 831.807 478.75C830.907 478.35 830.191 477.833 829.657 477.2C829.124 476.567 828.857 475.75 828.857 474.75V443.5H832.457V456.9L831.207 455.65C831.874 455.317 832.674 455 833.607 454.7C834.574 454.4 835.557 454.15 836.557 453.95C837.557 453.75 838.424 453.65 839.157 453.65C843.024 453.65 845.891 454.783 847.757 457.05C849.624 459.283 850.557 462.333 850.557 466.2C850.557 469.067 850.174 471.4 849.407 473.2C848.641 474.967 847.657 476.333 846.457 477.3C845.291 478.233 844.024 478.867 842.657 479.2C841.291 479.567 839.974 479.75 838.707 479.75ZM838.357 476.45C840.724 476.45 842.507 475.967 843.707 475C844.907 474.033 845.707 472.783 846.107 471.25C846.541 469.683 846.757 468 846.757 466.2C846.757 464.367 846.491 462.767 845.957 461.4C845.457 460 844.657 458.917 843.557 458.15C842.457 457.35 840.991 456.95 839.157 456.95C838.124 456.95 837.007 457.1 835.807 457.4C834.607 457.667 833.491 458.1 832.457 458.7V473.9C832.457 474.633 832.774 475.183 833.407 475.55C834.074 475.917 834.857 476.167 835.757 476.3C836.691 476.4 837.557 476.45 838.357 476.45Z" fill="black"/>
<path d="M544.5 138.777C544.5 126.733 516.879 123.073 513.667 136.739C507.833 161.555 510.504 150.921 505.679 170.9C491.092 231.301 455.513 384.667 455.513 384.667C455.513 384.667 441.821 438.227 433.5 452.733C412.821 478.727 401 473.733 388 473.733L379.5 484.733C394 484.733 426.493 486.588 441 468.733C447.5 460.733 456.122 435.233 460 420.733C463.5 407.645 474.305 376.262 488.833 311.659C508.667 223.466 519.275 176.496 523.25 156.299C525.013 147.341 524.999 146.569 527.333 138.777C529.083 132.936 534.151 134.821 536.5 138.777H544.5Z" fill="#43D6BB"/>
<g clip-path="url(#clip0_140_21)">
<path fill-rule="evenodd" clip-rule="evenodd" d="M178.93 410.593L233.5 410.603L236 405.403H181.82C182.089 404.923 182.362 404.437 182.637 403.946C185.02 399.697 187.63 395.044 190.48 390.383L242.74 300.303L254.02 348.233L268.52 315.467L256.89 266.233H256.02L185.28 388.353C181.919 394.106 178.612 399.788 175.347 405.403C174.575 406.731 173.805 408.055 173.037 409.375C158.64 434.135 144.997 457.597 131 480.173H146.3C152.08 463.143 160.16 444.663 178.93 410.593Z" fill="#024135"/>
<path d="M173.037 409.375L175.347 405.403L115.5 405.403L112 409.375L173.037 409.375Z" fill="#024135"/>
<path fill-rule="evenodd" clip-rule="evenodd" d="M374.6 266.523C309.93 266.523 265.18 325.423 265.18 393.853V393.863C265.18 449.003 299.83 483.653 349.2 483.653L357.28 473.833C314.55 473.833 286.83 441.203 286.83 390.103C286.83 332.353 321.19 271.143 374.6 271.143C403.19 271.143 418.49 278.723 430.33 306.733L440 301.233C426.43 277.563 408.96 266.523 374.6 266.523Z" fill="#024135"/>
<path fill-rule="evenodd" clip-rule="evenodd" d="M622.2 480.173L648.47 269.983H648.46H630.56L533.55 434.543L500.92 269.973H490.67L484.75 292.503L519.69 466.893H520.85L626.53 287.593L602.28 480.173H622.2Z" fill="#024135"/>
<path d="M746.83 465.743L739.04 480.183H650.11L694.86 269.983H714.78L670.89 474.983H677.24C693.12 474.983 716.51 473.253 746.25 465.743H746.83Z" fill="#024135"/>
</g>
<defs>
<clipPath id="clip0_140_21">
<rect width="686.83" height="217.41" fill="white" transform="translate(72 266.233)"/>
</clipPath>
</defs>
</svg>
