<svg width="740" height="530" viewBox="0 0 740 530" fill="none" xmlns="http://www.w3.org/2000/svg">
<path d="M544.5 138.777C544.5 126.733 516.879 123.073 513.667 136.739C507.833 161.555 510.504 150.921 505.679 170.9C491.092 231.301 455.513 384.667 455.513 384.667C455.513 384.667 441.821 438.227 433.5 452.733C412.821 478.727 401 473.733 388 473.733L379.5 484.733C394 484.733 426.493 486.588 441 468.733C447.5 460.733 456.122 435.233 460 420.733C463.5 407.645 474.305 376.262 488.833 311.659C508.667 223.466 519.275 176.496 523.25 156.299C525.013 147.341 524.999 146.569 527.333 138.777C529.083 132.936 534.151 134.821 536.5 138.777H544.5Z" fill="#81CFFE"/>
<g clip-path="url(#clip0_140_24)">
<path fill-rule="evenodd" clip-rule="evenodd" d="M178.93 410.593L233.5 410.603L236 405.403H181.82C182.089 404.923 182.362 404.437 182.637 403.946C185.02 399.697 187.63 395.044 190.48 390.383L242.74 300.303L254.02 348.233L268.52 315.467L256.89 266.233H256.02L185.28 388.353C181.919 394.106 178.612 399.788 175.347 405.403C174.575 406.731 173.805 408.055 173.037 409.375C158.64 434.135 144.997 457.597 131 480.173H146.3C152.08 463.143 160.16 444.663 178.93 410.593Z" fill="#16488D"/>
<path d="M173.037 409.375L175.347 405.403L115.5 405.403L112 409.375L173.037 409.375Z" fill="#16488D"/>
<path fill-rule="evenodd" clip-rule="evenodd" d="M374.6 266.523C309.93 266.523 265.18 325.423 265.18 393.853V393.863C265.18 449.003 299.83 483.653 349.2 483.653L357.28 473.833C314.55 473.833 286.83 441.203 286.83 390.103C286.83 332.353 321.19 271.143 374.6 271.143C403.19 271.143 418.49 278.723 430.33 306.733L440 301.233C426.43 277.563 408.96 266.523 374.6 266.523Z" fill="#16488D"/>
<path fill-rule="evenodd" clip-rule="evenodd" d="M622.2 480.173L648.47 269.983H648.46H630.56L533.55 434.543L500.92 269.973H490.67L484.75 292.503L519.69 466.893H520.85L626.53 287.593L602.28 480.173H622.2Z" fill="#16488D"/>
<path d="M746.83 465.743L739.04 480.183H650.11L694.86 269.983H714.78L670.89 474.983H677.24C693.12 474.983 716.51 473.253 746.25 465.743H746.83Z" fill="#16488D"/>
</g>
</svg>
